<svg width="25" height="25" viewBox="0 0 25 25" fill="none" xmlns="http://www.w3.org/2000/svg">
<path d="M12.2376 6.56695C8.76569 6.56695 5.96526 9.32045 5.96526 12.7342C5.96526 16.1479 8.76569 18.9014 12.2376 18.9014C15.7095 18.9014 18.5099 16.1479 18.5099 12.7342C18.5099 9.32045 15.7095 6.56695 12.2376 6.56695ZM12.2376 16.7436C9.99395 16.7436 8.15975 14.9455 8.15975 12.7342C8.15975 10.5228 9.98849 8.72467 12.2376 8.72467C14.4867 8.72467 16.3154 10.5228 16.3154 12.7342C16.3154 14.9455 14.4812 16.7436 12.2376 16.7436ZM20.2295 6.31468C20.2295 7.11443 19.5744 7.75316 18.7665 7.75316C17.9531 7.75316 17.3035 7.10906 17.3035 6.31468C17.3035 5.5203 17.9585 4.8762 18.7665 4.8762C19.5744 4.8762 20.2295 5.5203 20.2295 6.31468ZM24.3837 7.77463C24.2909 5.84771 23.8433 4.14086 22.4076 2.73459C20.9773 1.32831 19.2414 0.888183 17.2816 0.791569C15.2618 0.678852 9.20787 0.678852 7.18806 0.791569C5.23376 0.882815 3.49782 1.32295 2.06211 2.72922C0.626413 4.13549 0.184239 5.84234 0.0859783 7.76926C-0.0286594 9.75522 -0.0286594 15.7077 0.0859783 17.6937C0.17878 19.6206 0.626413 21.3274 2.06211 22.7337C3.49782 24.14 5.2283 24.5801 7.18806 24.6767C9.20787 24.7895 15.2618 24.7895 17.2816 24.6767C19.2414 24.5855 20.9773 24.1454 22.4076 22.7337C23.8378 21.3274 24.2855 19.6206 24.3837 17.6937C24.4984 15.7077 24.4984 9.76059 24.3837 7.77463ZM21.7743 19.8246C21.3485 20.8766 20.5242 21.6871 19.4488 22.1111C17.8385 22.7391 14.0172 22.5942 12.2376 22.5942C10.458 22.5942 6.63125 22.7337 5.02632 22.1111C3.95637 21.6924 3.13207 20.882 2.70081 19.8246C2.06211 18.2412 2.20951 14.4839 2.20951 12.7342C2.20951 10.9844 2.06757 7.22178 2.70081 5.64375C3.12661 4.59173 3.95091 3.78124 5.02632 3.35721C6.63671 2.72922 10.458 2.87414 12.2376 2.87414C14.0172 2.87414 17.8439 2.73459 19.4488 3.35721C20.5188 3.77587 21.3431 4.58636 21.7743 5.64375C22.413 7.22715 22.2656 10.9844 22.2656 12.7342C22.2656 14.4839 22.413 18.2465 21.7743 19.8246Z" fill="#DADADA" fill-opacity="0.36"/>
</svg>
