<svg width="25" height="21" viewBox="0 0 25 21" fill="none" xmlns="http://www.w3.org/2000/svg">
<path d="M22.4847 5.70001C22.5003 5.91373 22.5003 6.12749 22.5003 6.34121C22.5003 12.8599 17.4542 20.3709 8.23142 20.3709C5.39006 20.3709 2.75057 19.5618 0.530273 18.1573C0.933977 18.2031 1.3221 18.2184 1.74134 18.2184C4.0858 18.2184 6.24402 17.4398 7.96747 16.1117C5.7627 16.0658 3.91504 14.6461 3.27844 12.692C3.589 12.7378 3.89951 12.7683 4.22559 12.7683C4.67585 12.7683 5.12615 12.7072 5.54534 12.6004C3.24742 12.1424 1.52393 10.1578 1.52393 7.76097V7.69992C2.19154 8.06632 2.96793 8.29531 3.79078 8.3258C2.43997 7.44034 1.55499 5.929 1.55499 4.21916C1.55499 3.3032 1.80337 2.46355 2.23814 1.73077C4.70687 4.72296 8.41772 6.67701 12.5788 6.89077C12.5012 6.52438 12.4546 6.14276 12.4546 5.7611C12.4546 3.04367 14.6904 0.830078 17.4696 0.830078C18.9136 0.830078 20.2178 1.42546 21.1339 2.38724C22.2673 2.17352 23.3541 1.76131 24.3168 1.19647C23.9441 2.34147 23.1523 3.30325 22.1121 3.91386C23.1213 3.80704 24.0995 3.53219 25 3.15057C24.3169 4.12757 23.4629 4.99772 22.4847 5.70001Z" fill="#DADADA" fill-opacity="0.36"/>
</svg>
