<svg width="18" height="17" viewBox="0 0 18 17" fill="none" xmlns="http://www.w3.org/2000/svg">
<path d="M7.65316 1.07522L8.54503 0.259156C8.92266 -0.0863853 9.53331 -0.0863853 9.90693 0.259156L17.7168 7.40156C18.0944 7.74711 18.0944 8.30585 17.7168 8.64772L9.90693 15.7938C9.52929 16.1393 8.91865 16.1393 8.54503 15.7938L7.65316 14.9777C7.27151 14.6285 7.27954 14.0587 7.66923 13.7169L12.5102 9.49687H0.964178C0.429863 9.49687 0 9.10354 0 8.61463V7.43832C0 6.94942 0.429863 6.55609 0.964178 6.55609H12.5102L7.66923 2.33608C7.27553 1.99421 7.26749 1.42444 7.65316 1.07522Z" fill="white"/>
</svg>
