<svg width="17" height="17" viewBox="0 0 17 17" fill="none" xmlns="http://www.w3.org/2000/svg">
<path d="M3.56745 8.23451C3.56315 8.24736 3.55897 8.26 3.55493 8.27243C3.55493 8.26142 3.5592 8.24874 3.56745 8.23451C3.92356 7.17138 5.17368 4.6915 7.44844 3.86874C10.3262 2.82787 15.1508 2.25769 15.8279 1.21682C16.711 -0.140681 14.6506 3.67475 13.3037 4.57395C12.8853 4.85327 12.4825 5.07055 12.1884 5.14011C11.1727 5.38031 7.95628 6.35082 6.77131 6.67109C5.64062 6.97668 3.73932 7.93835 3.56745 8.23451Z" fill="#F77575"/>
<path d="M3.14066 10.6647C3.8855 8.87122 9.94018 7.30191 12.8744 6.74144C12.5923 7.24853 11.8926 8.39082 11.3509 8.90325C10.6737 9.54379 9.23484 10.0242 7.03416 10.8249C4.83349 11.6255 4.74885 13.9475 4.49492 15.3086C4.29178 16.3975 2.37888 16.8833 1.44783 16.99C0.714269 17.0167 -0.549709 17.006 0.262849 16.7498C1.07541 16.4936 1.50426 15.6823 1.61711 15.3086C1.81461 14.5079 2.39581 12.4582 3.14066 10.6647Z" fill="#F77575"/>
</svg>
