<svg version="1.2" xmlns="http://www.w3.org/2000/svg" viewBox="0 0 1000 770" width="1000" height="770">
	<title>17729-ai</title>
	<defs>
		<linearGradient id="g1" x1="314.3" y1="447" x2="475.3" y2="190" gradientUnits="userSpaceOnUse">
			<stop offset="0" stop-color="#000000"/>
			<stop offset=".2" stop-color="#394344"/>
			<stop offset=".2" stop-color="#3c3e3f"/>
			<stop offset=".5" stop-color="#828787"/>
			<stop offset=".5" stop-color="#a6a6a6"/>
			<stop offset=".9" stop-color="#a6a6a6"/>
		</linearGradient>
		<linearGradient id="g2" x1="391.7" y1="426.9" x2="486.7" y2="262.4" gradientUnits="userSpaceOnUse">
			<stop offset=".1" stop-color="#adb1b3"/>
			<stop offset=".5" stop-color="#a6a6a6"/>
			<stop offset=".5" stop-color="#828787"/>
			<stop offset=".8" stop-color="#3c3e3f"/>
			<stop offset=".8" stop-color="#394344"/>
			<stop offset="1" stop-color="#000000"/>
		</linearGradient>
		<linearGradient id="g3" x1="767.1" y1="373.3" x2="650.4" y2="609.6" gradientUnits="userSpaceOnUse">
			<stop offset="0" stop-color="#000000"/>
			<stop offset=".2" stop-color="#394344"/>
			<stop offset=".2" stop-color="#3c3e3f"/>
			<stop offset=".5" stop-color="#828787"/>
			<stop offset=".5" stop-color="#a6a6a6"/>
			<stop offset=".9" stop-color="#a6a6a6"/>
		</linearGradient>
		<linearGradient id="g4" x1="821" y1="458.6" x2="659.4" y2="716.6" gradientUnits="userSpaceOnUse">
			<stop offset="0" stop-color="#000000"/>
			<stop offset=".2" stop-color="#394344"/>
			<stop offset=".2" stop-color="#3c3e3f"/>
			<stop offset=".5" stop-color="#828787"/>
			<stop offset=".5" stop-color="#a6a6a6"/>
			<stop offset=".9" stop-color="#a6a6a6"/>
		</linearGradient>
		<linearGradient id="g5" x1="743.3" y1="491" x2="647.9" y2="656.1" gradientUnits="userSpaceOnUse">
			<stop offset=".1" stop-color="#adb1b3"/>
			<stop offset=".5" stop-color="#a6a6a6"/>
			<stop offset=".5" stop-color="#828787"/>
			<stop offset=".8" stop-color="#3c3e3f"/>
			<stop offset=".8" stop-color="#394344"/>
			<stop offset="1" stop-color="#000000"/>
		</linearGradient>
	</defs>
	<style>
		.s0 { fill: #dfebeb } 
		.s1 { fill: #b4c7cc } 
		.s2 { fill: #ebf0f0 } 
		.s3 { fill: #c7d1d1 } 
		.s4 { fill: #d7e3e3 } 
		.s5 { fill: #cbd6d6 } 
		.s6 { fill: #c2cccc } 
		.s7 { fill: #8fabb1 } 
		.s8 { fill: none;stroke: #a7b0b0;stroke-width: 3.3 } 
		.s9 { fill: #ccd6d6 } 
		.s10 { fill: #5b5b5b } 
		.s11 { fill: #696969 } 
		.s12 { fill: #262625 } 
		.s13 { fill: #a7c343 } 
		.s14 { fill: #a4bbc0 } 
		.s15 { fill: #e6f2f2 } 
		.s16 { fill: #313131 } 
		.s17 { fill: #d6e1e1 } 
		.s18 { fill: #787878 } 
		.s19 { fill: #d6ef43 } 
		.s20 { fill: #6d868f } 
		.s21 { fill: #0394b1 } 
		.s22 { fill: #4cb9cf } 
		.s23 { fill: none;stroke: #ebf0f0;stroke-width: 1.6 } 
		.s24 { mix-blend-mode: multiply;fill: #b7c6c9 } 
		.s25 { fill: url(#g1) } 
		.s26 { fill: #6e94b5 } 
		.s27 { fill: #a1bacf } 
		.s28 { fill: url(#g2) } 
		.s29 { fill: #dae6e6 } 
		.s30 { fill: #e1e6e6 } 
		.s31 { fill: #eaeaea } 
		.s32 { fill: #b2b2b2 } 
		.s33 { fill: #efefef } 
		.s34 { fill: #a7b0b0 } 
		.s35 { fill: url(#g3) } 
		.s36 { fill: #7d8282 } 
		.s37 { mix-blend-mode: multiply;fill: #d4d4d4 } 
		.s38 { fill: url(#g4) } 
		.s39 { fill: #6eaeb5 } 
		.s40 { fill: #a1cbcf } 
		.s41 { fill: url(#g5) } 
		.s42 { fill: #e6e6e6 } 
	</style>
	<g id="Layer 1">
		<g id="&lt;Group&gt;">
			<g id="&lt;Group&gt;">
				<g id="&lt;Group&gt;">
					<g id="&lt;Group&gt;">
						<path id="&lt;Path&gt;" class="s0" d="m749.2 92.1v450.2l-5.3 3.2-66.6-488.8 5.3-3.2z"/>
						<path id="&lt;Path&gt;" class="s1" d="m743.9 95.3v450.2l-66.6-24.3v-464.5z"/>
						<path id="&lt;Path&gt;" class="s2" d="m749.2 92.1l-5.3 3.2-66.6-38.6 5.3-3.2z"/>
					</g>
					<g id="&lt;Group&gt;">
						<path id="&lt;Path&gt;" class="s3" d="m663.5 42.5v464.5l-5.3 3.2-66.5-503 5.3-3.2z"/>
						<path id="&lt;Path&gt;" class="s1" d="m658.2 45.7v464.5l-66.5-38.5v-464.5z"/>
						<path id="&lt;Path&gt;" class="s2" d="m663.5 42.5l-5.3 3.2-66.5-38.5 5.3-3.2z"/>
					</g>
					<path id="&lt;Path&gt;" class="s0" d="m743.9 95.2v450.2l-134.7 77.8-75.3 43.6-63.8 36.8-69.6 40.3v-450.2z"/>
					<path id="&lt;Path&gt;" class="s4" d="m663.5 393.5l-23.4 99.3-5.6 23.7-25.3 106.7-75.3 43.6 30.4-130.1v-0.1l3.7-16.2h0.1l19.4-83 22.7-13.1z"/>
					<path id="&lt;Path&gt;" class="s5" d="m684.2 215.6v313.1l-80.1 46.3-74.7 43.1-69.3 40v-313.2l153.9-88.8z"/>
					<g id="&lt;Group&gt;">
						<path id="&lt;Path&gt;" class="s6" d="m713.3 112.9l-23.5 99.3-5.6 23.7-80.1 339.1-74.7 43.1 84.6-362v-0.1l3.8-16.2h0.1l19.3-83 22.8-13.1z"/>
						<path id="&lt;Path&gt;" class="s6" d="m573.4 193.8l-19.3 82.8-3.8 16.3-98.6 421.6-56.5 32.5v-263.8l27.2-116.4 3.8-16.4 19.3-82.7 14.6-8.5z"/>
					</g>
					<path id="&lt;Path&gt;" class="s7" d="m641.9 433c-9.7 49.8-40.7 94.2-76.1 111.9-0.1 0.1-0.1 0.1-0.1 0.1-6.2 3.1-12.5 5.4-18.8 6.8-3.3 0.7-6.6 1.1-9.8 1.3-15.6 1-29.2-3.9-39.9-14-4.8-4.6-9.1-10.3-12.6-17-10.7-20.6-13.4-48.5-7.5-78.6 2.6-13.1 6.5-25.7 11.7-37.6 16.9-39.1 46.3-70.1 77.4-79.6q0 0 0 0 3-1 5.9-1.6c3.3-0.7 6.6-1.2 9.8-1.4 22.7-1.4 41.3 9.7 52.5 31.1 10.7 20.6 13.4 48.5 7.5 78.6z"/>
					<path id="&lt;Path&gt;" class="s8" d="m614.7 527.9l-96.7 55.9c-22.7 13.1-51.1-3.3-51.1-29.5v-135.4c0-34 18.1-65.4 47.6-82.4l96.8-55.8c22.7-13.1 51 3.2 51 29.5v135.3c0 34-18.1 65.4-47.6 82.4z"/>
					<path id="&lt;Path&gt;" class="s2" d="m684.2 528.7l-224.1 129.4v-13.1l213.5-123.3z"/>
					<path id="&lt;Path&gt;" class="s9" d="m667.2 112.8l-7.2 30.9-199.9 115.6 79.3-72.9z"/>
					<path id="&lt;Path&gt;" class="s10" d="m743.9 95.2v85.8l-48.7 28.2h-0.1l-5.3 3-58.4 33.8-17.4 10-63.7 36.9-118.8 68.6-9.1 5.3-21.9 12.6v-85.7l45-26 14.6-8.5 113.3-65.4 63.8-37 22.8-13.1 53.3-30.8 10.5-6.1z"/>
					<g id="&lt;Group&gt;">
						<path id="&lt;Path&gt;" class="s11" d="m713.3 112.9l-23.5 99.3-58.4 33.8-17.4 10 3.8-16.2h0.1l19.3-83 22.8-13.1z"/>
						<path id="&lt;Path&gt;" class="s11" d="m573.4 193.8l-19.3 82.8-3.8 16.3-118.8 68.6-9.1 5.3 3.8-16.4 19.3-82.7 14.6-8.5z"/>
					</g>
					<g id="&lt;Group&gt;">
						<path id="&lt;Path&gt;" class="s12" d="m577.7 248.5l-22.5 13v-16.5l22.5-13z"/>
						<path id="&lt;Path&gt;" class="s12" d="m615.7 226.5l-22.5 13v-16.5l22.5-13z"/>
						<path id="&lt;Path&gt;" class="s12" d="m653.7 204.6l-22.5 13v-16.6l22.5-13z"/>
						<g id="&lt;Group&gt;">
							<path id="&lt;Path&gt;" class="s13" d="m572.6 246.2l-16 9.2v-5.9l16-9.2z"/>
						</g>
						<g id="&lt;Group&gt;">
							<path id="&lt;Path&gt;" class="s13" d="m610.6 224.2l-16 9.2v-5.8l16-9.3z"/>
						</g>
						<g id="&lt;Group&gt;">
							<path id="&lt;Path&gt;" class="s13" d="m648.6 202.2l-16 9.3v-5.9l16-9.2z"/>
						</g>
					</g>
					<path id="&lt;Path&gt;" class="s14" d="m248.3 205.6l152.2 88.1v450.2l-152.2-88.1z"/>
					<path id="&lt;Path&gt;" class="s15" d="m460.1 344.9v364.4l-59.6 34.6v-364.5z"/>
					<path id="&lt;Path&gt;" class="s15" d="m743.9 181v364.5l-59.7 34.5v-364.4l23-13.3z"/>
					<path id="&lt;Path&gt;" class="s10" d="m743.9 545.5v21.4l-343.4 198.4v-21.4z"/>
					<path id="&lt;Path&gt;" class="s16" d="m248.3 655.8l152.2 88.1v21.4l-152.2-88.1z"/>
					<path id="&lt;Path&gt;" class="s2" d="m591.7 7.2l152.2 88-343.4 198.5-152.2-88.1z"/>
					<g id="&lt;Group&gt;">
						<path id="&lt;Path&gt;" class="s17" d="m717.8 184.6l-3.7 2.2c-1 0.6-2.2-0.2-2.2-1.3v-25.3c0-1.6 0.9-3.1 2.2-3.9l3.8-2.1c1-0.6 2.2 0.1 2.2 1.2v25.3c0 1.6-0.9 3.1-2.3 3.9z"/>
						<path id="&lt;Path&gt;" class="s10" d="m716.7 183.1l-1.4 0.8v-26l1.4-0.8z"/>
					</g>
					<g id="&lt;Group&gt;">
						<path id="&lt;Path&gt;" class="s18" d="m570.5 223c0 2.9-1.8 6.2-4 7.5-2.2 1.3-4 0-4-2.9 0-2.8 1.8-6.2 4-7.5 2.2-1.3 4 0 4 2.9z"/>
						<g id="&lt;Group&gt;">
							<path id="&lt;Path&gt;" class="s13" d="m568.4 223.2c0 1.8-1.1 3.9-2.5 4.7-1.4 0.8-2.5 0-2.5-1.8 0-1.8 1.1-3.9 2.5-4.7 1.4-0.9 2.5 0 2.5 1.8z"/>
						</g>
						<g id="&lt;Group&gt;">
							<path id="&lt;Path&gt;" class="s19" d="m566.8 223.2c0 1-0.6 2.1-1.3 2.5-0.8 0.4-1.4 0-1.4-0.9 0-1 0.6-2.1 1.4-2.5 0.7-0.4 1.3 0 1.3 0.9z"/>
						</g>
					</g>
					<g id="&lt;Group&gt;">
						<path id="&lt;Path&gt;" class="s18" d="m608.5 201c0 2.9-1.8 6.3-4 7.6-2.3 1.2-4 0-4-2.9 0-2.9 1.7-6.3 4-7.5 2.2-1.3 4 0 4 2.8z"/>
						<g id="&lt;Group&gt;">
							<path id="&lt;Path&gt;" class="s13" d="m606.4 201.2c0 1.8-1.1 4-2.5 4.8-1.4 0.8-2.5 0-2.5-1.8 0-1.9 1.1-4 2.5-4.8 1.4-0.8 2.5 0 2.5 1.8z"/>
						</g>
						<g id="&lt;Group&gt;">
							<path id="&lt;Path&gt;" class="s19" d="m604.8 201.3c0 0.9-0.6 2-1.4 2.5-0.7 0.4-1.3 0-1.3-1 0-0.9 0.6-2.1 1.3-2.5 0.8-0.4 1.4 0 1.4 1z"/>
						</g>
					</g>
					<g id="&lt;Group&gt;">
						<path id="&lt;Path&gt;" class="s18" d="m646.4 179.1c0 2.8-1.7 6.2-4 7.5-2.2 1.3-4 0-4-2.9 0-2.8 1.8-6.2 4-7.5 2.3-1.3 4 0 4 2.9z"/>
						<g id="&lt;Group&gt;">
							<path id="&lt;Path&gt;" class="s13" d="m644.4 179.3c0 1.8-1.1 3.9-2.5 4.7-1.4 0.8-2.6 0-2.6-1.8 0-1.8 1.2-3.9 2.6-4.8 1.4-0.8 2.5 0 2.5 1.9z"/>
						</g>
						<g id="&lt;Group&gt;">
							<path id="&lt;Path&gt;" class="s19" d="m642.8 179.3c0 1-0.6 2.1-1.4 2.5-0.7 0.4-1.3 0-1.3-1 0-0.9 0.6-2 1.3-2.4 0.8-0.5 1.4 0 1.4 0.9z"/>
						</g>
					</g>
					<path id="&lt;Path&gt;" class="s14" d="m684.2 528.7l-10.6-7v-300l10.6-6.2z"/>
					<g id="&lt;Group&gt;">
						<path id="&lt;Path&gt;" class="s20" d="m333.9 255.1l66.6 488.8-6.9 4.6-66.6-38.6v-456.1z"/>
						<path id="&lt;Path&gt;" class="s0" d="m400.5 293.7v450.2l-5.3 3.2-66.6-488.8 5.3-3.2z"/>
						<path id="&lt;Path&gt;" class="s1" d="m395.2 296.8v450.3l-66.6-38.6v-450.2z"/>
						<path id="&lt;Path&gt;" class="s2" d="m400.5 293.7l-5.3 3.1-66.6-38.5 5.3-3.2z"/>
					</g>
					<g id="&lt;Group&gt;">
						<path id="&lt;Path&gt;" class="s20" d="m248.3 205.6l66.5 488.7-6.9 4.6-59.6-34.5z"/>
						<path id="&lt;Path&gt;" class="s3" d="m314.8 244.1v450.2l-5.3 3.2-66.5-488.7 5.3-3.2z"/>
						<path id="&lt;Path&gt;" class="s1" d="m309.5 247.3v450.2l-66.5-38.5v-450.2z"/>
						<path id="&lt;Path&gt;" class="s2" d="m314.8 244.1l-5.3 3.2-66.5-38.5 5.3-3.2z"/>
					</g>
					<path id="&lt;Path&gt;" class="s21" d="m498.6 268.2v32.5c0 7.6-4.1 14.6-10.6 18.4l-5.2 3-48 27.8-3.1 1.7c-4.4 2.6-9.9-0.7-9.9-5.8v-32.6c0-7.5 4-14.6 10.5-18.4l17.7-10.1 38.5-22.3c2.9-1.6 6.2-0.9 8.1 1.1 1.2 1.2 2 2.8 2 4.7z"/>
					<path id="&lt;Path&gt;" class="s22" d="m496.2 265l-13.1 55.6-45.6 26.3 14.5-61.9 36.6-21.1c2.6-1.5 5.8-0.9 7.6 1.1z"/>
					<path id="&lt;Path&gt;" class="s23" d="m485.4 316.4l-53.6 31c-2.9 1.7-6.6-0.4-6.6-3.8v-29.4c0-6.9 3.7-13.2 9.7-16.7l53.6-30.9c2.9-1.7 6.5 0.4 6.5 3.8v29.3c0 6.9-3.6 13.3-9.6 16.7z"/>
					<path id="&lt;Path&gt;" class="s24" d="m684.2 215.5l-10.6 12.1-213.5 122.1v-4.8z"/>
				</g>
				<g id="&lt;Group&gt;">
					<path id="&lt;Path&gt;" class="s25" d="m534.9 533.8c-3.2 0.8-15.7 6.8-15.7 6.8 0 0-0.9-0.5-9.6-5.5-9.2-5.3-16.9-13.5-22.6-24.5-10.7-20.6-13.4-48.5-7.5-78.7 11.4-58.4 52.2-109.5 95-118.7 3.3-0.7 6.5-1.2 9.8-1.4 9.5-0.6 18.2 1 26.1 4.6 10.8 5.1 14.8 8.6 14.8 8.6 0 0 10.6 59.9 4.7 90.1-11.4 58.5-52.2 109.5-95 118.7z"/>
					<path id="&lt;Path&gt;" class="s10" d="m652.3 426.2c-5.2 26.6-16.4 51.7-31.3 72-12.8 17.7-28.4 31.7-44.8 39.9 0 0.1 0 0.1 0 0.1-3.8 1.8-7.6 3.4-11.5 4.7q-3.6 1.2-7.4 2v0.1c-3.3 0.6-6.6 1.1-9.7 1.3-8.2 0.5-15.9-0.6-22.9-3.3-6.3-2.3-12-6-17-10.8-4.9-4.6-9.1-10.2-12.6-16.9-2.5-4.7-4.5-9.7-6-15.1-5.5-18.3-6.1-40.2-1.5-63.6 2.5-13 6.5-25.7 11.6-37.5 6.1-13.9 13.7-26.8 22.4-38.1 15.7-20.4 35-35.4 55-41.5q0.1 0 0.1 0c0.3-0.1 0.6-0.2 0.9-0.3q2.5-0.8 4.9-1.3c3.3-0.7 6.6-1.2 9.8-1.4 8.9-0.6 17.1 0.8 24.4 3.9 11.6 4.9 21.3 14.1 28.1 27.2 3.1 5.9 5.5 12.4 7.2 19.4 4.4 17.4 4.5 37.7 0.3 59.2z"/>
					<path id="&lt;Path&gt;" class="s11" d="m652 367l-31 131.2c-12.8 17.7-28.4 31.7-44.8 39.9 0 0.1 0 0.1 0 0.1-3.8 1.8-7.6 3.4-11.5 4.7l44.1-188.7v-0.1l2.7-11.5 5.2-22.2c11.6 4.9 21.3 14.1 28.1 27.2 3.1 5.9 5.5 12.4 7.2 19.4z"/>
					<path id="&lt;Path&gt;" class="s11" d="m577.6 319.2l-0.4 2-52.5 221.8c-6.3-2.3-12-6-17-10.8-4.9-4.6-9.1-10.2-12.6-16.9-2.5-4.7-4.5-9.7-6-15.1l32.5-139.2c15.7-20.4 35-35.4 55-41.5q0.1 0 0.1 0c0.3-0.1 0.6-0.2 0.9-0.3z"/>
					<path id="&lt;Path&gt;" class="s26" d="m544.6 520.6c-12.9-0.8-23-7.8-29.8-20.9-8.5-16.2-10.5-38.4-5.5-62.5 9.6-47.1 44-87.9 78.3-93 2.3-0.3 4.5-0.5 6.6-0.5q1.3 0 2.6 0.1c12.9 0.8 23 7.9 29.8 20.9 8.5 16.2 10.4 38.4 5.5 62.5-9.7 47.2-44.1 88-78.3 93l-1.1 0.2q-2.7 0.3-5.6 0.3-1.2 0-2.5-0.1z"/>
					<path id="&lt;Path&gt;" class="s27" d="m534.2 491.9c-9.6-0.7-16.6-6.3-20.9-16.8-5.3-13-5.3-30.9-0.1-50.2 10.2-37.9 38.4-70.8 64.2-74.8 1.8-0.3 3.4-0.4 5-0.4q1 0 1.9 0.1c9.6 0.6 16.6 6.3 20.9 16.8 5.3 13 5.3 30.8 0.1 50.2-10.2 37.9-38.4 70.7-64.2 74.8l-0.8 0.1q-2.1 0.3-4.3 0.3-0.9 0-1.8-0.1z"/>
					<path id="&lt;Path&gt;" class="s28" d="m632.1 427.2c-9.7 47.2-44.1 88-78.3 93l-1.1 0.2q-2.7 0.3-5.6 0.3-1.2 0-2.5-0.1c-5.7-0.3-10.8-1.9-15.3-4.6 3.1 1 6.3 1.7 9.7 1.9q1.3 0.1 2.5 0.1 2.9 0 5.7-0.3l1-0.2c34.2-4.9 68.3-44.9 77.5-91 4.7-23.7 2.6-45.4-6-61.3-7-12.8-17.1-19.7-30.1-20.5q-1.2 0-2.6 0c-0.6 0-1.2 0-1.8 0 0.8-0.1 1.6-0.4 2.4-0.5q3.5-0.5 6.6-0.5 1.3 0 2.5 0.1c13 0.8 23.1 7.8 29.9 20.9 8.5 16.2 10.4 38.4 5.5 62.5z"/>
				</g>
				<g id="&lt;Group&gt;">
					<path id="&lt;Path&gt;" class="s29" d="m460.1 447.9v261.4l-64.9 37.7v-88.9z"/>
				</g>
				<g id="&lt;Group&gt;">
					<g id="&lt;Group&gt;">
						<g id="&lt;Group&gt;">
							<path id="&lt;Path&gt;" class="s30" d="m616.7 44.8v0.2q0 0.1 0 0.2c-0.1 0.3-0.3 0.7-0.4 1v0.1c-0.5 0.8-1.2 1.5-2 2l-291.7 169c-5 2.9-11.1 2.9-16.2 0l-15.7-9.1q-1.3-0.8-1.9-2c-0.2-0.2-0.2-0.4-0.3-0.7q-0.2-0.3-0.2-0.7c0.3-1.3 1.1-2.5 2.4-3.3l291.7-169c2.2-1.3 4.7-2 7.3-2.1 3-0.2 6.1 0.5 8.9 2.1l15.6 9.1c1.3 0.7 2.2 1.9 2.5 3.2z"/>
							<path id="&lt;Path&gt;" class="s5" d="m616.7 44.8v0.2q0 0.1 0 0.2c0 0.2-0.1 0.3-0.2 0.5 0 0.2-0.1 0.3-0.2 0.5-0.5-0.8-1.2-1.4-2-2l-15.7-9.1c-2.7-1.5-5.7-2.2-8.6-2.1h-0.3c-2.6 0.2-5.1 0.8-7.3 2.1l-291.7 169c-0.9 0.5-1.5 1.3-1.9 2.1-0.2-0.2-0.2-0.4-0.3-0.7-0.1-0.1-0.1-0.3-0.3-0.5v-0.1c0 0 0 0 0.1-0.1 0.3-1.3 1.1-2.5 2.4-3.3l291.7-169c2.2-1.3 4.7-2 7.3-2.1 3-0.2 6.1 0.5 8.9 2.1l15.6 9.1c1.3 0.7 2.2 1.9 2.5 3.2z"/>
							<path id="&lt;Path&gt;" class="s1" d="m616.7 44.8v0.2c0 0.3 0 0.4-0.2 0.7 0 0.2-0.1 0.5-0.2 0.8-0.5-0.8-1.2-1.6-2.1-2.1l-15.9-9.2c-2.6-1.5-5.4-2.2-8.3-2.2h-0.3v-2.6c3-0.2 6.1 0.5 8.9 2.1l15.6 9.1c1.3 0.7 2.2 1.9 2.5 3.2z"/>
						</g>
					</g>
					<g id="&lt;Group&gt;">
						<g id="&lt;Group&gt;">
							<path id="&lt;Path&gt;" class="s30" d="m701.9 94.1v0.3q0 0.1 0 0.1c-0.1 0.4-0.2 0.7-0.4 1.1-0.5 0.8-1.1 1.5-2 2.1l-291.7 168.9c-5 2.9-11.1 2.9-16.2 0l-15.6-9.1q-1.4-0.7-2-2c-0.1-0.2-0.2-0.4-0.3-0.6q-0.2-0.4-0.2-0.8c0.3-1.3 1.1-2.5 2.5-3.3l291.6-168.9c2.2-1.3 4.7-2.1 7.3-2.2 3-0.2 6.2 0.5 8.9 2.1l15.6 9.1c1.3 0.8 2.2 1.9 2.5 3.2z"/>
							<path id="&lt;Path&gt;" class="s5" d="m701.9 94.1v0.3q0 0.1 0 0.1c0 0.2-0.1 0.3-0.1 0.5-0.1 0.2-0.2 0.3-0.3 0.6-0.5-0.9-1.1-1.5-2-2.1l-15.7-9c-2.6-1.6-5.6-2.3-8.6-2.1h-0.3c-2.6 0.1-5.1 0.8-7.3 2.1l-291.6 169c-1 0.5-1.6 1.2-2 2-0.1-0.2-0.2-0.4-0.3-0.6-0.1-0.2-0.1-0.4-0.2-0.6v-0.1c0 0 0 0 0-0.1 0.3-1.3 1.1-2.5 2.5-3.3l291.6-168.9c2.2-1.3 4.7-2.1 7.3-2.2 3-0.2 6.2 0.5 8.9 2.1l15.6 9.1c1.3 0.8 2.2 1.9 2.5 3.2z"/>
							<path id="&lt;Path&gt;" class="s1" d="m701.9 94.1v0.3c0 0.2 0 0.4-0.1 0.6-0.1 0.3-0.2 0.5-0.3 0.8-0.5-0.8-1.1-1.5-2.1-2.1l-15.9-9.2c-2.6-1.4-5.4-2.1-8.3-2.1h-0.3v-2.7c3-0.2 6.2 0.5 8.9 2.1l15.6 9.1c1.3 0.8 2.2 1.9 2.5 3.2z"/>
						</g>
					</g>
					<g id="&lt;Group&gt;">
						<g id="&lt;Group&gt;">
							<path id="&lt;Path&gt;" class="s30" d="m658.2 68.7v0.3q0 0.1 0 0.1c-0.1 0.4-0.3 0.7-0.4 1.1-0.5 0.8-1.2 1.5-2 2.1l-291.7 168.9c-5 2.9-11.2 2.9-16.2 0l-15.7-9.1q-1.3-0.7-1.9-2c-0.2-0.2-0.2-0.4-0.3-0.6q-0.2-0.4-0.2-0.8c0.3-1.3 1.1-2.5 2.4-3.3l291.7-168.9c2.2-1.3 4.7-2.1 7.3-2.2 3-0.2 6.1 0.5 8.8 2.1l15.7 9.1c1.3 0.8 2.2 1.9 2.5 3.2z"/>
							<path id="&lt;Path&gt;" class="s5" d="m658.2 68.7v0.3q0 0.1 0 0.1c0 0.2-0.1 0.3-0.2 0.5 0 0.2-0.1 0.3-0.2 0.6-0.5-0.9-1.2-1.5-2-2.1l-15.8-9c-2.6-1.6-5.6-2.3-8.5-2.1h-0.3c-2.6 0.1-5.1 0.8-7.3 2.1l-291.7 169c-0.9 0.5-1.5 1.2-1.9 2-0.2-0.2-0.2-0.4-0.3-0.6-0.1-0.2-0.1-0.4-0.3-0.6 0-0.1 0-0.1 0.1-0.2 0.3-1.3 1.1-2.5 2.4-3.3l291.7-168.9c2.2-1.3 4.7-2.1 7.3-2.2 3-0.2 6.1 0.5 8.8 2.1l15.7 9.1c1.3 0.8 2.2 1.9 2.5 3.2z"/>
							<path id="&lt;Path&gt;" class="s1" d="m658.2 68.7v0.3c0 0.2 0 0.4-0.2 0.6 0 0.3-0.1 0.5-0.2 0.8-0.5-0.8-1.2-1.5-2.1-2.1l-15.9-9.2c-2.6-1.4-5.4-2.1-8.3-2.1h-0.3v-2.7c3-0.2 6.1 0.5 8.8 2.1l15.7 9.1c1.3 0.8 2.2 1.9 2.5 3.2z"/>
						</g>
					</g>
				</g>
				<path id="&lt;Path&gt;" class="s2" d="m484.3 291.5l-50.2 28.9v-12.3l50.2-27.8z"/>
				<path id="&lt;Path&gt;" class="s2" d="m484.3 307.7l-50.2 28.9v-7.1l50.2-29.1z"/>
				<g id="&lt;Group&gt;">
					<g id="&lt;Group&gt;">
						<path id="&lt;Path&gt;" class="s31" d="m531.5 247.4l1.2 0.7-9.9 5.7-1.3-0.7z"/>
						<path id="&lt;Path&gt;" class="s32" d="m522.8 253.8v7.9l-1.2-0.8-0.1-7.8z"/>
						<path id="&lt;Path&gt;" class="s33" d="m532.8 255.9l-10 5.8v-7.9l9.9-5.7z"/>
					</g>
					<g id="&lt;Group&gt;">
						<path id="&lt;Path&gt;" class="s31" d="m519.2 254.5l1.3 0.7-9.9 5.8-1.3-0.8z"/>
						<path id="&lt;Path&gt;" class="s32" d="m510.6 261v7.8l-1.3-0.7v-7.9z"/>
						<path id="&lt;Path&gt;" class="s33" d="m520.5 263.1l-9.9 5.7v-7.8l9.9-5.8z"/>
					</g>
				</g>
				<g id="&lt;Group&gt;">
					<g id="&lt;Group&gt;">
						<path id="&lt;Path&gt;" class="s31" d="m531.5 262.4l1.2 0.7-9.9 5.8-1.3-0.8z"/>
						<path id="&lt;Path&gt;" class="s32" d="m522.8 268.9v7.8l-1.2-0.8-0.1-7.8z"/>
						<path id="&lt;Path&gt;" class="s33" d="m532.8 270.9l-10 5.8v-7.8l9.9-5.8z"/>
					</g>
					<g id="&lt;Group&gt;">
						<path id="&lt;Path&gt;" class="s31" d="m519.2 269.5l1.3 0.8-9.9 5.7-1.3-0.7z"/>
						<path id="&lt;Path&gt;" class="s32" d="m510.6 276v7.8l-1.3-0.7v-7.8z"/>
						<path id="&lt;Path&gt;" class="s33" d="m520.5 278.1l-9.9 5.7v-7.8l9.9-5.7z"/>
					</g>
				</g>
				<g id="&lt;Group&gt;">
					<g id="&lt;Group&gt;">
						<path id="&lt;Path&gt;" class="s31" d="m531.5 277.4l1.2 0.7-9.9 5.8-1.3-0.8z"/>
						<path id="&lt;Path&gt;" class="s32" d="m522.8 283.9v7.8l-1.2-0.7-0.1-7.9z"/>
						<path id="&lt;Path&gt;" class="s33" d="m532.8 286l-10 5.7v-7.8l9.9-5.8z"/>
					</g>
					<g id="&lt;Group&gt;">
						<path id="&lt;Path&gt;" class="s31" d="m519.2 284.6l1.3 0.7-9.9 5.7-1.3-0.7z"/>
						<path id="&lt;Path&gt;" class="s32" d="m510.6 291v7.8l-1.3-0.7v-7.8z"/>
						<path id="&lt;Path&gt;" class="s33" d="m520.5 293.1l-9.9 5.7v-7.8l9.9-5.7z"/>
					</g>
				</g>
			</g>
			<g id="&lt;Group&gt;">
				<g id="&lt;Group&gt;">
				</g>
				<g id="&lt;Group&gt;">
				</g>
				<g id="&lt;Group&gt;">
				</g>
				<g id="&lt;Group&gt;">
				</g>
				<g id="&lt;Group&gt;">
				</g>
				<g id="&lt;Group&gt;">
					<g id="&lt;Group&gt;">
						<g id="&lt;Group&gt;">
						</g>
					</g>
				</g>
				<g id="&lt;Group&gt;">
					<g id="&lt;Group&gt;">
					</g>
				</g>
				<g id="&lt;Group&gt;">
				</g>
				<g id="&lt;Group&gt;">
				</g>
			</g>
			<g id="&lt;Group&gt;">
				<g id="&lt;Group&gt;">
				</g>
			</g>
			<g id="&lt;Group&gt;">
				<g id="&lt;Group&gt;">
				</g>
			</g>
			<g id="&lt;Group&gt;">
				<g id="&lt;Group&gt;">
				</g>
			</g>
			<g id="&lt;Group&gt;">
				<path id="&lt;Path&gt;" class="s34" d="m646 423.4c-9.8 49.9-40.9 94.5-76.5 112.3 0 0 0 0 0 0-6.2 3.2-12.6 5.5-18.9 6.8v0.1c-3.3 0.7-6.6 1.1-9.8 1.3-15.7 1-29.4-3.9-40.1-14.1-4.8-4.6-9.1-10.3-12.6-17-10.8-20.7-13.5-48.7-7.5-79 2.5-13.1 6.5-25.8 11.7-37.7 17-39.3 46.5-70.4 77.7-79.9q0 0 0 0 3-1 5.9-1.6c3.3-0.7 6.6-1.2 9.8-1.4 22.8-1.4 41.5 9.7 52.7 31.2 10.8 20.6 13.5 48.7 7.6 79z"/>
				<path id="&lt;Path&gt;" class="s35" d="m634.5 424.1c-8.4 43-35.2 81.4-65.8 96.8-0.1 0-0.1 0-0.1 0-5.3 2.7-10.8 4.7-16.2 5.8v0.1q-4.3 0.9-8.5 1.1c-13.5 0.9-25.3-3.4-34.5-12.1-4.2-4-7.8-8.9-10.9-14.7-9.3-17.8-11.6-41.9-6.5-68 2.2-11.3 5.7-22.2 10.1-32.5 14.7-33.8 40.1-60.6 66.9-68.8q0.1 0 0.1 0 2.5-0.9 5.1-1.4c2.8-0.6 5.6-1 8.4-1.2 19.6-1.2 35.7 8.3 45.4 26.9 9.3 17.7 11.6 41.9 6.5 68z"/>
				<path id="&lt;Path&gt;" class="s36" d="m503.6 487c0 0 0 0-0.1 0-2.9 1.5-6 2.7-9 3.8-5.6-16.4-6.7-36.3-2.5-57.7 2.2-11.3 5.7-22.2 10.1-32.5 14.3-33 38.8-59.1 64.9-68 5.5 16.3 6.6 36.2 2.4 57.6-8.4 43-35.2 81.4-65.8 96.8z"/>
				<path id="&lt;Path&gt;" class="s37" d="m403.3 553.6c1.4-10.2 3.5-20.8 6.1-31.5 5.8-23.4 13.9-45.6 23.7-64.9 6.2-12.3 13.2-23.4 20.6-33.1 2.8-3.5 5.5-6.7 8.3-9.8 1.4-1.5 2.8-2.9 4.2-4.2 0.3-0.3 0.5-0.5 0.8-0.8 0 0 0 0 0 0 17-16.2 33.3-21.1 46.5-15.2 7.4 3.1 13.8 9.5 18.9 18.8 4.3 8 7.7 18.4 9.8 30.8 3.9 22.2 3.4 48.8-1.2 76.8-1.3 8.2-3 16.5-5.1 24.9-2.9 12-6.5 23.7-10.6 34.8-4.3 11.5-9.1 22.5-14.4 32.7-5.9 11.2-12.4 21.6-19.3 30.6-2.7 3.4-5.5 6.7-8.3 9.7-2.1 2.3-4.2 4.4-6.2 6.2-3.3 3-6.5 5.6-9.7 7.8q0 0 0 0c-13.9 9.5-27 11.1-37.9 5.3-12.5-6.7-22-23.2-26.4-48.6-3.6-20.5-3.5-44.6 0.2-70.3z"/>
				<g id="&lt;Group&gt;">
					<path id="&lt;Path&gt;" class="s38" d="m504.1 468.5c-5.9-30.3 4.7-90.5 4.7-90.5 0 0 4.1-3.5 15-8.6 7.8-3.6 16.6-5.2 26.2-4.6 3.2 0.2 6.5 0.7 9.8 1.4 42.9 9.2 83.9 60.5 95.3 119.2 6 30.3 3.3 58.3-7.5 78.9-5.7 11-13.4 19.3-22.6 24.6-8.8 5-9.7 5.5-9.7 5.5 0 0-12.5-6-15.8-6.7-42.9-9.3-83.9-60.5-95.4-119.2z"/>
					<path id="&lt;Path&gt;" class="s10" d="m481.9 420.2c1.7-7 4.2-13.6 7.3-19.5 6.9-13.2 16.5-22.4 28.2-27.3 7.4-3.1 15.6-4.5 24.5-3.9 3.2 0.2 6.5 0.7 9.8 1.4q2.5 0.5 4.9 1.3c0.4 0.1 0.7 0.2 1 0.3q0 0 0.1 0c20.1 6.1 39.5 21.2 55.2 41.7 8.7 11.3 16.4 24.3 22.4 38.2 5.2 11.9 9.2 24.6 11.7 37.7 4.6 23.4 4.1 45.5-1.4 63.8-1.6 5.4-3.6 10.5-6.1 15.2-3.5 6.7-7.7 12.4-12.6 17-5.1 4.8-10.8 8.4-17.1 10.8-7 2.7-14.8 3.8-23 3.3-3.2-0.2-6.5-0.7-9.8-1.4q-3.7-0.8-7.4-2.1c-3.9-1.2-7.7-2.8-11.5-4.7 0 0 0 0 0 0-16.5-8.3-32.1-22.4-45-40.1-14.9-20.4-26.2-45.6-31.5-72.3-4.2-21.5-4-41.9 0.3-59.4z"/>
					<path id="&lt;Path&gt;" class="s11" d="m489.2 400.7c6.9-13.2 16.5-22.4 28.2-27.3l5.2 22.3 2.7 11.6 44.3 189.4c-3.9-1.2-7.7-2.8-11.5-4.7 0 0 0 0 0 0-16.5-8.3-32.1-22.4-45-40.1l-31.2-131.7c1.7-7 4.2-13.6 7.3-19.5z"/>
					<path id="&lt;Path&gt;" class="s11" d="m557.6 372.5q0 0 0.1 0c20.1 6.1 39.5 21.2 55.2 41.7l32.7 139.7c-1.6 5.4-3.6 10.5-6.1 15.2-3.5 6.7-7.7 12.4-12.6 17-5.1 4.8-10.8 8.4-17.1 10.8l-52.7-222.7-0.5-2c0.4 0.1 0.7 0.2 1 0.3z"/>
					<path id="&lt;Path&gt;" class="s39" d="m587.3 574.5q-2.9 0-5.7-0.3l-1-0.2c-34.4-5-68.9-46-78.6-93.3-5-24.3-3-46.5 5.5-62.8 6.8-13.1 16.9-20.2 29.9-21q1.3-0.1 2.6-0.1c2.1 0 4.3 0.2 6.6 0.5 34.4 5.1 69 46.1 78.6 93.4 5 24.2 3 46.5-5.5 62.7-6.8 13.1-16.9 20.2-29.9 21q-1.3 0.1-2.5 0.1z"/>
					<path id="&lt;Path&gt;" class="s40" d="m598.4 545.6q-2.2 0-4.2-0.2l-0.8-0.2c-26-4-54.3-37-64.6-75-5.2-19.5-5.2-37.4 0.1-50.4 4.3-10.6 11.4-16.3 21-16.9q1-0.1 2-0.1c1.5 0 3.2 0.1 4.9 0.4 26 4.1 54.3 37 64.5 75.1 5.3 19.4 5.2 37.3-0.1 50.4-4.3 10.5-11.3 16.2-21 16.9q-0.9 0-1.8 0z"/>
					<path id="&lt;Path&gt;" class="s41" d="m507.5 417.9c6.8-13.1 16.9-20.2 30-21q1.2-0.1 2.5-0.1 3.1 0 6.6 0.5c0.9 0.1 1.7 0.4 2.5 0.5-0.7 0-1.3 0-1.9 0q-1.4 0-2.6 0c-13 0.8-23.2 7.7-30.2 20.6-8.6 15.9-10.8 37.7-6 61.5 9.3 46.3 43.4 86.5 77.8 91.4l1 0.2q2.8 0.3 5.7 0.3 1.2 0 2.5-0.1c3.4-0.2 6.7-0.9 9.7-2-4.5 2.8-9.6 4.4-15.3 4.7q-1.3 0.1-2.5 0.1-2.9 0-5.6-0.3l-1.1-0.2c-34.4-5-68.9-46-78.6-93.3-5-24.3-3-46.5 5.5-62.8z"/>
				</g>
			</g>
			<g id="&lt;Group&gt;">
				<g id="&lt;Group&gt;">
					<g id="&lt;Group&gt;">
					</g>
					<g id="&lt;Group&gt;">
					</g>
					<g id="&lt;Group&gt;">
					</g>
					<g id="&lt;Group&gt;">
					</g>
					<g id="&lt;Group&gt;">
						<g id="&lt;Group&gt;">
						</g>
						<g id="&lt;Group&gt;">
							<g id="&lt;Group&gt;">
							</g>
							<g id="&lt;Group&gt;">
							</g>
						</g>
					</g>
					<g id="&lt;Group&gt;">
						<g id="&lt;Group&gt;">
						</g>
						<g id="&lt;Group&gt;">
						</g>
					</g>
					<g id="&lt;Group&gt;">
						<g id="&lt;Group&gt;">
						</g>
						<g id="&lt;Group&gt;">
							<g id="&lt;Group&gt;">
							</g>
						</g>
					</g>
					<g id="&lt;Group&gt;">
					</g>
					<g id="&lt;Group&gt;">
					</g>
					<g id="&lt;Group&gt;">
					</g>
					<g id="&lt;Group&gt;">
					</g>
				</g>
			</g>
			<g id="&lt;Group&gt;">
				<g id="&lt;Group&gt;">
					<g id="&lt;Group&gt;">
						<g id="&lt;Group&gt;">
						</g>
						<g id="&lt;Group&gt;">
						</g>
						<g id="&lt;Group&gt;">
							<path id="&lt;Path&gt;" class="s42" d="m863 578.3v1.7l-1.3 0.7v-1.7z"/>
							<g id="&lt;Group&gt;">
							</g>
						</g>
						<g id="&lt;Group&gt;">
						</g>
						<g id="&lt;Group&gt;">
						</g>
						<g id="&lt;Group&gt;">
						</g>
					</g>
					<g id="&lt;Group&gt;">
					</g>
					<g id="&lt;Group&gt;">
					</g>
				</g>
			</g>
			<g id="&lt;Group&gt;">
				<g id="&lt;Group&gt;">
				</g>
			</g>
			<g id="&lt;Group&gt;">
				<g id="&lt;Group&gt;">
				</g>
			</g>
			<g id="&lt;Group&gt;">
				<g id="&lt;Group&gt;">
				</g>
			</g>
			<g id="&lt;Group&gt;">
				<g id="&lt;Group&gt;">
					<g id="&lt;Group&gt;">
						<g id="&lt;Group&gt;">
						</g>
						<g id="&lt;Group&gt;">
						</g>
					</g>
				</g>
				<g id="&lt;Group&gt;">
					<g id="&lt;Group&gt;">
						<g id="&lt;Group&gt;">
						</g>
						<g id="&lt;Group&gt;">
						</g>
					</g>
				</g>
				<g id="&lt;Group&gt;">
					<g id="&lt;Group&gt;">
						<g id="&lt;Group&gt;">
						</g>
						<g id="&lt;Group&gt;">
						</g>
					</g>
				</g>
				<g id="&lt;Group&gt;">
					<g id="&lt;Group&gt;">
						<g id="&lt;Group&gt;">
						</g>
						<g id="&lt;Group&gt;">
						</g>
					</g>
				</g>
				<g id="&lt;Group&gt;">
					<g id="&lt;Group&gt;">
						<g id="&lt;Group&gt;">
						</g>
						<g id="&lt;Group&gt;">
						</g>
					</g>
				</g>
				<g id="&lt;Group&gt;">
				</g>
				<g id="&lt;Group&gt;">
					<g id="&lt;Group&gt;">
					</g>
					<g id="&lt;Group&gt;">
					</g>
					<g id="&lt;Group&gt;">
					</g>
				</g>
				<g id="&lt;Group&gt;">
				</g>
			</g>
			<g id="&lt;Group&gt;">
				<g id="&lt;Group&gt;">
					<g id="&lt;Group&gt;">
						<g id="&lt;Group&gt;">
						</g>
						<g id="&lt;Group&gt;">
						</g>
						<g id="&lt;Group&gt;">
							<g id="&lt;Group&gt;">
								<g id="&lt;Group&gt;">
								</g>
								<g id="&lt;Group&gt;">
								</g>
							</g>
							<g id="&lt;Group&gt;">
							</g>
							<g id="&lt;Group&gt;">
							</g>
						</g>
						<g id="&lt;Group&gt;">
						</g>
						<g id="&lt;Group&gt;">
							<g id="&lt;Group&gt;">
								<g id="&lt;Group&gt;">
									<g id="&lt;Group&gt;">
									</g>
									<g id="&lt;Group&gt;">
										<g id="&lt;Group&gt;">
										</g>
									</g>
								</g>
								<g id="&lt;Group&gt;">
									<g id="&lt;Group&gt;">
									</g>
									<g id="&lt;Group&gt;">
									</g>
								</g>
								<g id="&lt;Group&gt;">
									<g id="&lt;Group&gt;">
									</g>
									<g id="&lt;Group&gt;">
										<g id="&lt;Group&gt;">
										</g>
									</g>
								</g>
							</g>
						</g>
						<g id="&lt;Group&gt;">
						</g>
						<g id="&lt;Group&gt;">
						</g>
						<g id="&lt;Group&gt;">
							<g id="&lt;Group&gt;">
							</g>
							<g id="&lt;Group&gt;">
							</g>
						</g>
					</g>
				</g>
			</g>
			<g id="&lt;Group&gt;">
				<g id="&lt;Group&gt;">
					<g id="&lt;Group&gt;">
						<g id="&lt;Group&gt;">
						</g>
						<g id="&lt;Group&gt;">
						</g>
						<g id="&lt;Group&gt;">
						</g>
						<g id="&lt;Group&gt;">
						</g>
					</g>
					<g id="&lt;Group&gt;">
					</g>
				</g>
			</g>
			<g id="&lt;Group&gt;">
				<g id="&lt;Group&gt;">
					<g id="&lt;Group&gt;">
					</g>
					<g id="&lt;Group&gt;">
						<g id="&lt;Group&gt;">
						</g>
					</g>
					<g id="&lt;Group&gt;">
					</g>
				</g>
			</g>
			<g id="&lt;Group&gt;">
				<g id="&lt;Group&gt;">
					<g id="&lt;Group&gt;">
						<g id="&lt;Group&gt;">
						</g>
						<g id="&lt;Group&gt;">
						</g>
						<g id="&lt;Group&gt;">
						</g>
						<g id="&lt;Group&gt;">
						</g>
					</g>
				</g>
			</g>
			<g id="&lt;Group&gt;">
				<g id="&lt;Group&gt;">
				</g>
				<g id="&lt;Group&gt;">
				</g>
			</g>
			<g id="&lt;Group&gt;">
				<g id="&lt;Group&gt;">
				</g>
				<g id="&lt;Group&gt;">
				</g>
				<g id="&lt;Group&gt;">
				</g>
				<g id="&lt;Group&gt;">
					<g id="&lt;Group&gt;">
					</g>
					<g id="&lt;Group&gt;">
					</g>
				</g>
				<g id="&lt;Group&gt;">
				</g>
				<g id="&lt;Group&gt;">
				</g>
				<g id="&lt;Group&gt;">
				</g>
				<g id="&lt;Group&gt;">
				</g>
				<g id="&lt;Group&gt;">
				</g>
				<g id="&lt;Group&gt;">
					<g id="&lt;Group&gt;">
					</g>
				</g>
				<g id="&lt;Group&gt;">
				</g>
			</g>
		</g>
	</g>
</svg>