<svg width="19" height="17" viewBox="0 0 19 17" fill="none" xmlns="http://www.w3.org/2000/svg">
<path d="M0.663265 2.98469H17.9082C18.2745 2.98469 18.5714 2.68776 18.5714 2.32143V0.663265C18.5714 0.296936 18.2745 0 17.9082 0H0.663265C0.296936 0 0 0.296936 0 0.663265V2.32143C0 2.68776 0.296936 2.98469 0.663265 2.98469ZM0.663265 9.61735H17.9082C18.2745 9.61735 18.5714 9.32041 18.5714 8.95408V7.29592C18.5714 6.92959 18.2745 6.63265 17.9082 6.63265H0.663265C0.296936 6.63265 0 6.92959 0 7.29592V8.95408C0 9.32041 0.296936 9.61735 0.663265 9.61735ZM0.663265 16.25H17.9082C18.2745 16.25 18.5714 15.9531 18.5714 15.5867V13.9286C18.5714 13.5622 18.2745 13.2653 17.9082 13.2653H0.663265C0.296936 13.2653 0 13.5622 0 13.9286V15.5867C0 15.9531 0.296936 16.25 0.663265 16.25Z" fill="#F67575"/>
</svg>
